<svg width="31" height="23" viewBox="0 0 31 23" fill="none" xmlns="http://www.w3.org/2000/svg">
<path d="M29.45 0H1.55C1.13906 0.000454427 0.745091 0.155658 0.454513 0.431564C0.163935 0.70747 0.000478591 1.08155 0 1.47174V21.0949C0.000478591 21.4851 0.163935 21.8592 0.454513 22.1351C0.745091 22.411 1.13906 22.5662 1.55 22.5667H29.45C29.8609 22.5662 30.2549 22.411 30.5455 22.1351C30.8361 21.8592 30.9995 21.4851 31 21.0949V1.47174C30.9995 1.08155 30.8361 0.70747 30.5455 0.431564C30.2549 0.155658 29.8609 0.000454427 29.45 0ZM28.9333 1.96232V5.88696H2.06667V1.96232H28.9333ZM2.06667 20.6043V9.81159H28.9333V20.6043H2.06667Z" fill="white"/>
<path d="M4.6499 14.7173H8.78324V16.6796H4.6499V14.7173Z" fill="white"/>
<path d="M10.8501 14.7173H14.9834V16.6796H10.8501V14.7173Z" fill="white"/>
</svg>
