<svg width="26" height="26" viewBox="0 0 26 26" fill="none" xmlns="http://www.w3.org/2000/svg">
<g filter="url(#filter0_d_8_1327)">
<path d="M18.5386 7.16621C18.4271 7.09247 18.3024 7.04183 18.1717 7.0172C18.0409 6.99256 17.9067 6.99441 17.7767 7.02264C17.6467 7.05087 17.5234 7.10492 17.4139 7.18171C17.3044 7.2585 17.2108 7.35653 17.1385 7.47018L11.4659 16.3799L8.69948 13.7734C8.60188 13.6815 8.48746 13.61 8.36275 13.5631C8.23804 13.5162 8.10548 13.4948 7.97265 13.5001C7.70439 13.5108 7.45129 13.6296 7.26903 13.8305C7.08676 14.0314 6.99027 14.2978 7.00078 14.5711C7.01128 14.8445 7.12792 15.1024 7.32504 15.2881L10.9574 18.7102C10.9574 18.7102 11.0616 18.8016 11.1099 18.8336C11.2214 18.9074 11.3461 18.9581 11.4769 18.9828C11.6076 19.0074 11.7419 19.0056 11.8719 18.9774C12.002 18.9491 12.1253 18.8951 12.2349 18.8182C12.3444 18.7414 12.438 18.6434 12.5103 18.5297L18.8369 8.59288C18.9093 8.47925 18.9589 8.35221 18.9831 8.21901C19.0073 8.08581 19.0055 7.94906 18.9778 7.81657C18.9501 7.68409 18.897 7.55846 18.8217 7.44687C18.7463 7.33528 18.6501 7.23991 18.5386 7.16621Z" fill="#32F246"/>
</g>
<defs>
<filter id="filter0_d_8_1327" x="0" y="0" width="26" height="26" filterUnits="userSpaceOnUse" color-interpolation-filters="sRGB">
<feFlood flood-opacity="0" result="BackgroundImageFix"/>
<feColorMatrix in="SourceAlpha" type="matrix" values="0 0 0 0 0 0 0 0 0 0 0 0 0 0 0 0 0 0 127 0" result="hardAlpha"/>
<feOffset/>
<feGaussianBlur stdDeviation="3.5"/>
<feComposite in2="hardAlpha" operator="out"/>
<feColorMatrix type="matrix" values="0 0 0 0 0.196078 0 0 0 0 0.94902 0 0 0 0 0.27451 0 0 0 0.8 0"/>
<feBlend mode="normal" in2="BackgroundImageFix" result="effect1_dropShadow_8_1327"/>
<feBlend mode="normal" in="SourceGraphic" in2="effect1_dropShadow_8_1327" result="shape"/>
</filter>
</defs>
</svg>
