<svg width="18" height="13" viewBox="0 0 18 13" fill="none" xmlns="http://www.w3.org/2000/svg">
<path d="M16.1993 5.68443C16.5717 6.17157 16.5717 6.82921 16.1993 7.31557C15.0262 8.84693 12.2118 12 8.92596 12C5.64011 12 2.82568 8.84693 1.65261 7.31557C1.47141 7.08232 1.37305 6.79536 1.37305 6.5C1.37305 6.20464 1.47141 5.91768 1.65261 5.68443C2.82568 4.15307 5.64011 1 8.92596 1C12.2118 1 15.0262 4.15307 16.1993 5.68443V5.68443Z" stroke="white" stroke-width="2" stroke-linecap="round" stroke-linejoin="round"/>
<path d="M8.92599 8.85735C10.2278 8.85735 11.2831 7.80202 11.2831 6.50021C11.2831 5.1984 10.2278 4.14307 8.92599 4.14307C7.62418 4.14307 6.56885 5.1984 6.56885 6.50021C6.56885 7.80202 7.62418 8.85735 8.92599 8.85735Z" stroke="white" stroke-width="2" stroke-linecap="round" stroke-linejoin="round"/>
</svg>
