<svg width="26" height="20" viewBox="0 0 26 20" fill="none" xmlns="http://www.w3.org/2000/svg">
<path d="M23.7998 8.78901C24.3528 9.51234 24.3528 10.4888 23.7998 11.211C22.058 13.4848 17.879 18.1667 13 18.1667C8.12097 18.1667 3.94197 13.4848 2.20014 11.211C1.93109 10.8647 1.78503 10.4386 1.78503 10C1.78503 9.56144 1.93109 9.13536 2.20014 8.78901C3.94197 6.51518 8.12097 1.83334 13 1.83334C17.879 1.83334 22.058 6.51518 23.7998 8.78901V8.78901Z" stroke="#595959" stroke-width="2" stroke-linecap="round" stroke-linejoin="round"/>
<path d="M13 13.5C14.933 13.5 16.5 11.933 16.5 10C16.5 8.067 14.933 6.5 13 6.5C11.067 6.5 9.5 8.067 9.5 10C9.5 11.933 11.067 13.5 13 13.5Z" stroke="#595959" stroke-width="2" stroke-linecap="round" stroke-linejoin="round"/>
</svg>
