<svg width="19" height="23" viewBox="0 0 19 23" fill="none" xmlns="http://www.w3.org/2000/svg">
<g filter="url(#filter0_d_8_1343)">
<path d="M10.3708 7.41553C11.0379 7.41553 11.5786 6.87479 11.5786 6.20776C11.5786 5.54073 11.0379 5 10.3708 5C9.70382 5 9.16309 5.54073 9.16309 6.20776C9.16309 6.87479 9.70382 7.41553 10.3708 7.41553Z" fill="#A3A3A3"/>
</g>
<g filter="url(#filter1_d_8_1343)">
<path d="M10.9621 11.2019C11.1101 11.4241 11.3311 11.5926 11.5847 11.6771L13.2001 12.2158L13.5824 11.0708L11.967 10.5321L10.9627 9.02546C10.8459 8.85103 10.6859 8.70978 10.4983 8.61543L9.63238 8.18245C9.37476 8.05365 9.07943 8.02172 8.80023 8.09247L6.87203 8.57376C6.70279 8.61593 6.54468 8.69421 6.40854 8.80325C6.27241 8.91228 6.16148 9.04948 6.08336 9.20542L5 11.3728L6.08034 11.9132L7.16371 9.7459L8.50614 9.41014L7.41674 14.4501L5.19807 15.9761L5.88227 16.9713L8.10154 15.4447C8.35577 15.2696 8.53211 15.0069 8.59672 14.705L8.90893 13.2629L10.4289 14.403L10.9875 17.196L12.1717 16.9587L11.6131 14.1645C11.5545 13.8734 11.3906 13.6142 11.153 13.4362L9.84193 12.4531L10.2326 10.107L10.9621 11.2019Z" fill="#A3A3A3"/>
</g>
<defs>
<filter id="filter0_d_8_1343" x="4.16309" y="0" width="12.416" height="12.4155" filterUnits="userSpaceOnUse" color-interpolation-filters="sRGB">
<feFlood flood-opacity="0" result="BackgroundImageFix"/>
<feColorMatrix in="SourceAlpha" type="matrix" values="0 0 0 0 0 0 0 0 0 0 0 0 0 0 0 0 0 0 127 0" result="hardAlpha"/>
<feOffset/>
<feGaussianBlur stdDeviation="2.5"/>
<feComposite in2="hardAlpha" operator="out"/>
<feColorMatrix type="matrix" values="0 0 0 0 0.7125 0 0 0 0 0.7125 0 0 0 0 0.7125 0 0 0 0.3 0"/>
<feBlend mode="normal" in2="BackgroundImageFix" result="effect1_dropShadow_8_1343"/>
<feBlend mode="normal" in="SourceGraphic" in2="effect1_dropShadow_8_1343" result="shape"/>
</filter>
<filter id="filter1_d_8_1343" x="0" y="3.05566" width="18.582" height="19.1401" filterUnits="userSpaceOnUse" color-interpolation-filters="sRGB">
<feFlood flood-opacity="0" result="BackgroundImageFix"/>
<feColorMatrix in="SourceAlpha" type="matrix" values="0 0 0 0 0 0 0 0 0 0 0 0 0 0 0 0 0 0 127 0" result="hardAlpha"/>
<feOffset/>
<feGaussianBlur stdDeviation="2.5"/>
<feComposite in2="hardAlpha" operator="out"/>
<feColorMatrix type="matrix" values="0 0 0 0 0.7125 0 0 0 0 0.7125 0 0 0 0 0.7125 0 0 0 0.3 0"/>
<feBlend mode="normal" in2="BackgroundImageFix" result="effect1_dropShadow_8_1343"/>
<feBlend mode="normal" in="SourceGraphic" in2="effect1_dropShadow_8_1343" result="shape"/>
</filter>
</defs>
</svg>
