<svg width="23" height="19" viewBox="0 0 23 19" fill="none" xmlns="http://www.w3.org/2000/svg">
<path d="M0 14.25H22.1667V15.8333H0V14.25Z" fill="white"/>
<path d="M0 17.4165H22.1667V18.9998H0V17.4165Z" fill="white"/>
<path d="M17.4168 4.75C17.1037 4.75 16.7976 4.84286 16.5372 5.01684C16.2768 5.19082 16.0739 5.4381 15.954 5.72742C15.8342 6.01673 15.8028 6.33509 15.8639 6.64223C15.925 6.94936 16.0758 7.23149 16.2972 7.45292C16.5187 7.67435 16.8008 7.82515 17.1079 7.88624C17.4151 7.94734 17.7334 7.91598 18.0227 7.79614C18.3121 7.6763 18.5593 7.47336 18.7333 7.21299C18.9073 6.95261 19.0002 6.64649 19.0002 6.33333C19.0002 5.91341 18.8333 5.51068 18.5364 5.21375C18.2395 4.91682 17.8368 4.75 17.4168 4.75Z" fill="white"/>
<path d="M11.0832 9.49984C10.4569 9.49984 9.84462 9.31412 9.32387 8.96616C8.80311 8.6182 8.39723 8.12364 8.15755 7.545C7.91788 6.96637 7.85517 6.32966 7.97735 5.71539C8.09954 5.10111 8.40113 4.53687 8.844 4.094C9.28687 3.65113 9.85111 3.34954 10.4654 3.22735C11.0797 3.10517 11.7164 3.16788 12.295 3.40755C12.8736 3.64723 13.3682 4.05311 13.7162 4.57387C14.0641 5.09462 14.2498 5.70686 14.2498 6.33317C14.2488 7.1727 13.9148 7.97755 13.3212 8.57119C12.7275 9.16482 11.9227 9.49879 11.0832 9.49984V9.49984ZM11.0832 4.74984C10.77 4.74984 10.4639 4.8427 10.2035 5.01668C9.94314 5.19066 9.7402 5.43794 9.62036 5.72726C9.50052 6.01657 9.46917 6.33493 9.53026 6.64207C9.59136 6.9492 9.74215 7.23132 9.96359 7.45276C10.185 7.67419 10.4671 7.82499 10.7743 7.88608C11.0814 7.94718 11.3998 7.91582 11.6891 7.79598C11.9784 7.67614 12.2257 7.4732 12.3997 7.21282C12.5736 6.95245 12.6665 6.64633 12.6665 6.33317C12.6661 5.91337 12.4991 5.51089 12.2023 5.21405C11.9055 4.91721 11.503 4.75026 11.0832 4.74984Z" fill="white"/>
<path d="M4.74984 4.75C4.43668 4.75 4.13056 4.84286 3.87019 5.01684C3.60981 5.19082 3.40687 5.4381 3.28703 5.72742C3.16719 6.01673 3.13583 6.33509 3.19693 6.64223C3.25802 6.94936 3.40882 7.23149 3.63025 7.45292C3.85169 7.67435 4.13381 7.82515 4.44095 7.88624C4.74808 7.94734 5.06644 7.91598 5.35575 7.79614C5.64507 7.6763 5.89235 7.47336 6.06633 7.21299C6.24031 6.95261 6.33317 6.64649 6.33317 6.33333C6.33317 5.91341 6.16636 5.51068 5.86942 5.21375C5.57249 4.91682 5.16976 4.75 4.74984 4.75Z" fill="white"/>
<path d="M20.5833 12.6667H1.58333C1.16373 12.6656 0.761608 12.4985 0.464902 12.2018C0.168196 11.9051 0.0010451 11.5029 0 11.0833V1.58333C0.0010451 1.16373 0.168196 0.761608 0.464902 0.464902C0.761608 0.168196 1.16373 0.0010451 1.58333 0H20.5833C21.0029 0.0010451 21.4051 0.168196 21.7018 0.464902C21.9985 0.761608 22.1656 1.16373 22.1667 1.58333V11.0833C22.166 11.5031 21.999 11.9054 21.7022 12.2022C21.4054 12.499 21.0031 12.666 20.5833 12.6667V12.6667ZM20.5833 1.58333H1.58333V11.0833H20.5833V1.58333Z" fill="white"/>
</svg>
