<svg width="18" height="18" viewBox="0 0 18 18" fill="none" xmlns="http://www.w3.org/2000/svg">
<path d="M5.63632 0.78711C5.287 1.13643 5.30581 1.7016 5.51271 2.15123C5.72883 2.62168 5.79571 3.14703 5.70436 3.65663C5.61301 4.16623 5.3678 4.63563 5.00172 5.00172C4.63563 5.3678 4.16623 5.61301 3.65663 5.70436C3.14703 5.79571 2.62168 5.72883 2.15123 5.51271C1.7016 5.30671 1.13643 5.287 0.78711 5.63632L0.262243 6.16118C0.0943287 6.32915 0 6.55693 0 6.79443C0 7.03193 0.0943287 7.25971 0.262243 7.42767L9.7439 16.9093C9.91186 17.0772 10.1396 17.1716 10.3771 17.1716C10.6146 17.1716 10.8424 17.0772 11.0104 16.9093L11.5353 16.3845C11.8846 16.0351 11.8658 15.47 11.6589 15.0203C11.4427 14.5499 11.3759 14.0245 11.4672 13.5149C11.5586 13.0053 11.8038 12.5359 12.1699 12.1699C12.5359 11.8038 13.0053 11.5586 13.5149 11.4672C14.0245 11.3759 14.5499 11.4427 15.0203 11.6589C15.47 11.8649 16.0351 11.8846 16.3845 11.5353L16.9093 11.0104C17.0772 10.8424 17.1716 10.6146 17.1716 10.3771C17.1716 10.1396 17.0772 9.91186 16.9093 9.7439L7.42767 0.262243C7.25971 0.0943287 7.03193 0 6.79443 0C6.55693 0 6.32915 0.0943287 6.16118 0.262243L5.63632 0.78711Z" fill="white"/>
</svg>
