<svg width="34" height="28" viewBox="0 0 34 28" fill="none" xmlns="http://www.w3.org/2000/svg">
<path d="M28.8571 10.7859V3.28592C28.8571 2.7176 28.6314 2.17256 28.2295 1.77069C27.8276 1.36883 27.2826 1.14307 26.7143 1.14307H3.14286C2.57454 1.14307 2.02949 1.36883 1.62763 1.77069C1.22576 2.17256 1 2.7176 1 3.28592V24.7145C1 25.2828 1.22576 25.8279 1.62763 26.2297C2.02949 26.6316 2.57454 26.8574 3.14286 26.8574H26.7143C27.2826 26.8574 27.8276 26.6316 28.2295 26.2297C28.6314 25.8279 28.8571 25.2828 28.8571 24.7145V17.2145V10.7859ZM32.7597 9.77076L20.2857 9.71449C19.1491 9.71449 18.059 10.166 17.2553 10.9698C16.4515 11.7735 16 12.8636 16 14.0002C16 15.1369 16.4515 16.2269 17.2553 17.0307C18.059 17.8344 19.1491 18.2859 20.2857 18.2859H32.7597C32.7995 18.2859 32.8377 18.2701 32.8658 18.242C32.8939 18.2139 32.9097 18.1757 32.9097 18.1359V9.92076C32.9097 9.88097 32.8939 9.84282 32.8658 9.81469C32.8377 9.78656 32.7995 9.77076 32.7597 9.77076Z" stroke="white" stroke-width="2"/>
</svg>
